<?xml version="1.0" encoding="UTF-8"?>
<svg version="1.1" xmlns="http://www.w3.org/2000/svg" width="357" height="312">
<path d="M0 0 C117.81 0 235.62 0 357 0 C357 102.96 357 205.92 357 312 C239.19 312 121.38 312 0 312 C0 209.04 0 106.08 0 0 Z " fill="#5784B9" transform="translate(0,0)"/>
<path d="M0 0 C7.63033066 5.3714934 12.19658072 11.55855532 16 20 C16.40089844 20.87140625 16.80179688 21.7428125 17.21484375 22.640625 C19.43700302 27.79666714 20.58543726 32.40340306 21 38 C18.1875 40.0625 18.1875 40.0625 15 42 C14.01 41.67 13.02 41.34 12 41 C2.020593 39.54466981 -7.29234847 47.37595536 -15 53 C-17.25680034 54.830082 -17.25680034 54.830082 -17.23046875 57.53125 C-17.21628906 58.5109375 -17.20210938 59.490625 -17.1875 60.5 C-17.18105469 61.4796875 -17.17460937 62.459375 -17.16796875 63.46875 C-17.16440726 65.99369384 -17.16440726 65.99369384 -16 68 C-15.95893452 69.42816601 -15.92804457 70.85663113 -15.90234375 72.28515625 C-15.22632195 79.613338 -11.32217653 85.28647927 -7.5625 91.4375 C-6.85968226 92.61816244 -6.15849762 93.79979861 -5.45898438 94.98242188 C-3.04336246 99.03963777 -0.61942729 103.07085907 2 107 C1.9375 108.9375 1.9375 108.9375 1 111 C0.29875 111.556875 -0.4025 112.11375 -1.125 112.6875 C-5.15084449 115.92567926 -7.93347542 119.87116898 -11 124 C-11.44472656 124.55558594 -11.88945312 125.11117187 -12.34765625 125.68359375 C-17.92983545 132.88119459 -22.05055873 141.82114301 -23.578125 150.8046875 C-24 153 -24 153 -25.0234375 156.04296875 C-26.48830664 161.09730585 -26.3832321 166.21134881 -26.375 171.4375 C-26.37338867 172.498479 -26.37177734 173.55945801 -26.37011719 174.65258789 C-26.19082559 186.25293011 -24.0581984 196.87837314 -18.734375 207.30078125 C-18 209 -18 209 -18 212 C-19.051875 212.226875 -20.10375 212.45375 -21.1875 212.6875 C-25.17177382 213.81085509 -27.31180498 215.83741763 -30 219 C-33.73868664 226.47737328 -31.63686665 235.64793301 -32 244 C-51.47 244 -70.94 244 -91 244 C-89.7183608 226.05705116 -84.37481527 215.34067397 -73.62890625 201.6640625 C-66.78307742 192.8504275 -62.58251801 186.33972687 -61.6875 175.0625 C-61.460625 174.051875 -61.23375 173.04125 -61 172 C-58.4375 170.5625 -58.4375 170.5625 -56 170 C-55.34683915 156.04256728 -55.34683915 156.04256728 -60.8125 143.5625 C-65.71094171 140.06361306 -69.46021857 138.62262916 -75.5 138.8828125 C-76.716875 138.91503906 -77.93375 138.94726562 -79.1875 138.98046875 C-81.72947438 139.07683458 -84.2711649 139.18100419 -86.8125 139.29296875 C-97.21403 139.54639586 -97.21403 139.54639586 -100.8203125 136.68359375 C-105.61811815 130.77661798 -104.107429 122.2693624 -104 115 C-104.99 115 -105.98 115 -107 115 C-106.125 110.25 -106.125 110.25 -105 108 C-106.32 107.34 -107.64 106.68 -109 106 C-108.34 102.7 -107.68 99.4 -107 96 C-110.3 94.35 -113.6 92.7 -117 91 C-115.24786921 86.61967302 -113.20580641 83.01307764 -110.625 79.125 C-103.67659526 69.42122024 -103.67659526 69.42122024 -102 58 C-102.226875 57.154375 -102.45375 56.30875 -102.6875 55.4375 C-103 53 -103 53 -101.6328125 50.38671875 C-99.71400479 46.40679942 -98.9928443 42.68751828 -98.1875 38.375 C-96.7918121 31.40646905 -94.65689966 25.78017796 -91.1640625 19.54296875 C-89.94409859 16.87787981 -89.80887083 15.54901406 -90.125 12.6875 C-89.98334959 8.50881284 -89.64399137 8.06474486 -86.75 5.3125 C-77.70977588 -1.65005858 -67.00686664 -3.96627183 -56 -6 C-55.22317871 -6.17345947 -54.44635742 -6.34691895 -53.64599609 -6.52563477 C-37.01164116 -9.50778568 -14.87613115 -8.42706045 0 0 Z " fill="#112D4E" transform="translate(191,40)"/>
<path d="M0 0 C2.66070722 2.05990236 3.61291832 4.45346213 4.9375 7.5 C6.5875 7.5 8.2375 7.5 9.9375 7.5 C10.75018029 8.9221905 11.56285208 10.34438587 12.37548828 11.76660156 C13.0924709 13.02123874 13.80959676 14.27579407 14.52685547 15.53027344 C16.36755208 18.75009014 18.20624322 21.97100436 20.0390625 25.1953125 C24.52495064 33.08113362 29.08519428 40.91100813 33.875 48.6171875 C37.60478843 54.62158175 41.17125579 60.65547364 44.5078125 66.88671875 C45.92033258 69.4686202 47.4089079 71.98534719 48.9375 74.5 C51.54928781 78.80097005 53.96822455 83.18203094 56.34375 87.6171875 C58.66504602 91.81600236 61.18775409 95.89106817 63.71484375 99.96875 C64.9375 102.5 64.9375 102.5 63.9375 105.5 C62.9475 105.995 62.9475 105.995 61.9375 106.5 C63.02039498 109.33218686 64.1811546 111.95121223 65.625 114.625 C66.9375 117.5 66.9375 117.5 65.9375 120.5 C64.01171875 121.95703125 64.01171875 121.95703125 61.625 123.3125 C60.84511719 123.77269531 60.06523437 124.23289062 59.26171875 124.70703125 C56.9375 125.5 56.9375 125.5 54.81640625 124.89453125 C52.62692946 123.26949338 51.55309435 121.72685694 50.1875 119.375 C49.75953125 118.65054688 49.3315625 117.92609375 48.890625 117.1796875 C48.57609375 116.62539062 48.2615625 116.07109375 47.9375 115.5 C46.2875 115.83 44.6375 116.16 42.9375 116.5 C35.11696445 103.58990957 27.52314265 90.54912111 19.9375 77.5 C9.74344173 81.36518563 4.85267914 89.67686051 0.34765625 99.0703125 C-2.25990199 105.41224086 -3.42900247 110.95880336 -3.375 117.75 C-3.36936035 118.49725342 -3.3637207 119.24450684 -3.35791016 120.0144043 C-3.05904095 133.7283581 2.31543056 146.65924716 11.9375 156.5 C12.5975 156.83 13.2575 157.16 13.9375 157.5 C13.9375 158.16 13.9375 158.82 13.9375 159.5 C14.64390625 159.768125 15.3503125 160.03625 16.078125 160.3125 C20.06201509 161.96701173 23.80753234 164.02942906 27.609375 166.0625 C35.39026979 169.42326207 43.14746908 169.81957122 51.53515625 169.9140625 C52.61002792 169.93342865 53.6848996 169.9527948 54.79234314 169.9727478 C58.194817 170.03209301 61.59732553 170.07874772 65 170.125 C67.31967547 170.16322128 69.63933738 170.20227537 71.95898438 170.2421875 C77.61837824 170.3377572 83.27783846 170.42195321 88.9375 170.5 C88.9375 177.1 88.9375 183.7 88.9375 190.5 C50.3275 190.5 11.7175 190.5 -28.0625 190.5 C-28.0625 183.9 -28.0625 177.3 -28.0625 170.5 C-15.6875 170.005 -15.6875 170.005 -3.0625 169.5 C-5.7025 166.53 -8.3425 163.56 -11.0625 160.5 C-16.49225145 152.62153711 -19.34706836 144.60063139 -22.0625 135.5 C-22.43246094 134.34886719 -22.80242187 133.19773438 -23.18359375 132.01171875 C-26.94754029 116.97266122 -23.21019554 98.9457942 -16.0625 85.5 C-13.60483271 81.65051692 -10.92240441 78.05838106 -8.0625 74.5 C-7.4953125 73.77941406 -6.928125 73.05882812 -6.34375 72.31640625 C-3.17167095 68.47848985 0.25198947 65.34463718 4.1640625 62.26171875 C5.50718506 61.19957153 5.50718506 61.19957153 6.87744141 60.1159668 C7.55726074 59.58269775 8.23708008 59.04942871 8.9375 58.5 C6.96189737 54.97715572 4.98198963 51.45675479 3 47.9375 C2.41259033 46.89440674 1.82518066 45.85131348 1.2199707 44.77661133 C-2.57722812 38.05888865 -6.44723843 31.39748575 -10.52124023 24.84350586 C-13.0625 20.70770653 -13.0625 20.70770653 -13.0625 18.5 C-12.4025 18.17 -11.7425 17.84 -11.0625 17.5 C-12.17463866 14.00470706 -13.37823191 10.75530808 -15.0625 7.5 C-13.64781689 6.53874097 -12.2306636 5.58111675 -10.8125 4.625 C-10.02359375 4.09132813 -9.2346875 3.55765625 -8.421875 3.0078125 C-2.6935757 -0.65298805 -2.6935757 -0.65298805 0 0 Z " fill="#122E4F" transform="translate(200.0625,93.5)"/>
<path d="M0 0 C3.3222714 2.89359122 4.32084333 4.68914241 5 9 C4.34741211 9.36125977 3.69482422 9.72251953 3.02246094 10.09472656 C-0.07035368 11.80958665 -3.16054691 13.52909101 -6.25 15.25 C-7.37486816 15.87592041 -8.49973633 16.50184082 -9.65869141 17.14672852 C-17.86326042 21.73783529 -25.94606002 26.50148871 -33.89160156 31.53027344 C-34.65698242 32.00368164 -35.42236328 32.47708984 -36.2109375 32.96484375 C-36.87399902 33.3837085 -37.53706055 33.80257324 -38.22021484 34.23413086 C-40 35 -40 35 -43 34 C-44.8125 31.6875 -44.8125 31.6875 -46 29 C-44.77987845 25.04573033 -42.46433908 23.80670013 -38.93359375 21.8984375 C-37.8979126 21.33020264 -36.86223145 20.76196777 -35.79516602 20.17651367 C-34.68713623 19.58201416 -33.57910645 18.98751465 -32.4375 18.375 C-30.16323706 17.1304134 -27.88980282 15.88431135 -25.6171875 14.63671875 C-24.49538086 14.0236084 -23.37357422 13.41049805 -22.21777344 12.77880859 C-17.78460039 10.32811824 -13.41605635 7.77636205 -9.0625 5.1875 C-2.12591743 1.06295872 -2.12591743 1.06295872 0 0 Z " fill="#143052" transform="translate(289,213)"/>
</svg>
